<?xml version="1.0" encoding="UTF-8"?>
<svg width="30px" height="30px" viewBox="0 0 30 30" version="1.1" xmlns="http://www.w3.org/2000/svg" xmlns:xlink="http://www.w3.org/1999/xlink">
    <!-- Generator: Sketch 41.2 (35397) - http://www.bohemiancoding.com/sketch -->
    <title>behance</title>
    <desc>Created with Sketch.</desc>
    <defs></defs>
    <g id="Page-1" stroke="none" stroke-width="1" fill="none" fill-rule="evenodd">
        <g id="Interfaz_CV" transform="translate(-410.000000, -599.000000)">
            <g id="behance" transform="translate(410.000000, 599.000000)">
                <circle id="Oval-3" fill="#D8D8D8" cx="15" cy="15" r="15"></circle>
                <path d="M23.2710276,10.9532716 L18.4953268,10.9532716 L18.4953268,9.79439191 L23.2710276,9.79439191 L23.2710276,10.9532716 Z M20.9158875,13.7757008 C20.355138,13.7757008 19.9003134,13.9392501 19.5514009,14.266355 C19.2024906,14.5934599 19.0093461,15.0373797 18.9719632,15.5981313 L22.785046,15.5981313 C22.6728953,14.3831721 22.0498487,13.7757008 20.9158875,13.7757008 Z M21.0654211,19.2429907 C21.4579465,19.2429907 21.8380033,19.1433032 22.2056062,18.9439252 C22.5732111,18.7445482 22.8099686,18.4735229 22.9158871,18.1308406 L24.9813073,18.1308406 C24.3582524,20.0436232 23.0280462,21 20.9906532,21 C19.6573132,21 18.5965769,20.5887892 17.8084109,19.7663552 C17.020245,18.9439212 16.6261683,17.8629345 16.6261683,16.5233643 C16.6261683,15.2274071 17.0327052,14.1510955 17.8457938,13.2943918 C18.6588824,12.4376902 19.7071584,12.0093457 20.9906532,12.0093457 C21.850472,12.0093457 22.599685,12.2211827 23.2383173,12.6448609 C23.8769497,13.0685391 24.3535798,13.6261651 24.6682244,14.3177578 C24.982867,15.0093504 25.1401861,15.7819264 25.1401861,16.635515 C25.1401861,16.7414335 25.133956,16.88785 25.1214957,17.0747665 L18.9719632,17.0747665 C18.9719632,17.7663591 19.1510878,18.3006221 19.5093455,18.6775702 C19.8676031,19.054519 20.3862887,19.2429907 21.0654211,19.2429907 Z M8.58878468,18.775701 L11.3551407,18.775701 C12.6324054,18.775701 13.2710273,18.2554579 13.2710273,17.2149528 C13.2710273,16.0934518 12.6510958,15.5327107 11.4112139,15.5327107 L8.58878468,15.5327107 L8.58878468,18.775701 Z M8.58878468,13.7570104 L11.2149522,13.7570104 C11.7009359,13.7570104 12.0856674,13.6433043 12.3691593,13.4158877 C12.6526491,13.1884733 12.794393,12.8348946 12.794393,12.355141 C12.794393,11.4579394 12.202497,11.0093469 11.0186906,11.0093469 L8.58878468,11.0093469 L8.58878468,13.7570104 Z M6,9 L11.5514023,9 C12.0934614,9 12.5763216,9.04361301 12.9999998,9.13084112 C13.423678,9.21806923 13.8177547,9.36604321 14.1822425,9.57476724 C14.5467303,9.78349127 14.8271008,10.0841097 15.0233646,10.4766352 C15.2196262,10.8691606 15.3177571,11.3489079 15.3177571,11.9158875 C15.3177571,13.0436186 14.7819365,13.8629268 13.7102808,14.373831 C14.4205638,14.5732099 14.9563844,14.9314612 15.3177571,15.4485977 C15.6791298,15.9657341 15.8598119,16.601243 15.8598119,17.3551412 C15.8598119,17.8224324 15.7834887,18.2476618 15.63084,18.6308421 C15.4781913,19.0140207 15.2725865,19.3364473 15.0140194,19.5981308 C14.7554501,19.8598145 14.4485994,20.0809961 14.0934568,20.2616822 C13.7383164,20.4423686 13.3613725,20.5732084 12.9626169,20.6542056 C12.5638614,20.7352029 12.1464196,20.7757009 11.7102811,20.7757009 L6,20.7757009 L6,9 Z" id="Page-1" fill="#FFFFFF"></path>
            </g>
        </g>
    </g>
</svg>