<?xml version="1.0" encoding="UTF-8"?>
<svg width="45px" height="46px" viewBox="0 0 45 46" version="1.1" xmlns="http://www.w3.org/2000/svg" xmlns:xlink="http://www.w3.org/1999/xlink">
    <!-- Generator: Sketch 41.2 (35397) - http://www.bohemiancoding.com/sketch -->
    <title>Page 1</title>
    <desc>Created with Sketch.</desc>
    <defs></defs>
    <g id="Symbols" stroke="none" stroke-width="1" fill="none" fill-rule="evenodd">
        <g id="fb" fill="#CECECE">
            <path d="M22.5,0 C16.2890325,0 10.9863506,2.21354971 6.59179688,6.64071714 C2.19724369,11.0678846 0,16.4099197 0,22.6669812 C0,28.9240427 2.19724369,34.2660778 6.59179688,38.6932452 C10.9863506,43.1204121 16.2890325,45.3339623 22.5,45.3339623 C28.7109675,45.3339623 34.0136494,43.1204121 38.4082031,38.6932452 C42.8027569,34.2660778 45,28.9240427 45,22.6669812 C45,16.4099197 42.8027569,11.0678846 38.4082031,6.64071714 C34.0136494,2.21354971 28.7109675,0 22.5,0 Z M28.3007812,22.6669812 L24.609375,22.6669812 L24.609375,36.302587 L19.5996094,36.302587 L19.5996094,22.6669812 L16.171875,22.6669812 L16.171875,17.9742077 L19.5996094,17.9742077 L19.5996094,15.229378 C19.5996094,13.1633676 19.9804669,11.6138811 20.7421875,10.5808788 C21.5039081,9.54787081 22.9394419,9.03137531 25.0488281,9.03137531 L28.7402344,9.03137531 L28.7402344,13.7241488 L26.4550781,13.7241488 C25.6347619,13.7241488 25.1220713,13.8717165 24.916995,14.1668632 C24.7119131,14.46201 24.609375,14.9637436 24.609375,15.6720924 L24.609375,17.9742077 L28.828125,17.9742077 L28.3007812,22.6669812 Z" id="Page-1"></path>
        </g>
    </g>
</svg>