<?xml version="1.0" encoding="UTF-8"?>
<svg width="44px" height="44px" viewBox="0 0 44 44" version="1.1" xmlns="http://www.w3.org/2000/svg" xmlns:xlink="http://www.w3.org/1999/xlink">
    <!-- Generator: Sketch 41.2 (35397) - http://www.bohemiancoding.com/sketch -->
    <title>Page 1</title>
    <desc>Created with Sketch.</desc>
    <defs></defs>
    <g id="Symbols" stroke="none" stroke-width="1" fill="none" fill-rule="evenodd">
        <g id="google" fill="#CECECE">
            <path d="M22,0 C15.927054,0 10.7422095,2.1484155 6.4453125,6.4453125 C2.14841605,10.7422095 0,15.927054 0,22 C0,28.072946 2.14841605,33.2577905 6.4453125,37.5546875 C10.7422095,41.8515839 15.927054,44 22,44 C28.072946,44 33.2577905,41.8515839 37.5546875,37.5546875 C41.8515845,33.2577905 44,28.072946 44,22 C44,15.927054 41.8515845,10.7422095 37.5546875,6.4453125 C33.2577905,2.1484155 28.072946,0 22,0 Z M15.8984375,36.78125 C13.3775895,36.78125 11.243496,36.3085965 9.496091,35.363284 C7.7486915,34.417966 6.875,33.1718805 6.875,31.625 C6.875,30.020826 7.720042,28.574227 9.410159,27.285159 C11.1002705,25.9960855 13.1197825,25.3515625 15.46875,25.3515625 L16.285159,25.3515625 L17.015625,25.3515625 C16.213538,24.5494755 15.8125,23.7187555 15.8125,22.859375 C15.8125,22.34375 15.9557255,21.799481 16.2421875,21.2265625 C16.013019,21.283856 15.755212,21.3125 15.46875,21.3125 C13.520826,21.3125 11.916674,20.696621 10.65625,19.464841 C9.395826,18.2330665 8.765625,16.729174 8.765625,14.953125 C8.765625,13.234364 9.539057,11.730477 11.0859375,10.441409 C12.632818,9.1523355 14.408845,8.5078125 16.4140625,8.5078125 L25.1796875,8.5078125 L23.203125,9.8828125 L20.453125,9.8828125 C21.3125055,10.2265625 22,10.871091 22.515625,11.816409 C23.03125,12.7617215 23.2890625,13.807288 23.2890625,14.953125 C23.2890625,16.729174 22.4583425,18.2473885 20.796875,19.5078125 C20.1093695,20.080731 19.6510435,20.5247405 19.421875,20.839841 C19.1927065,21.154947 19.078125,21.5703125 19.078125,22.0859375 C19.078125,22.773443 19.851557,23.661451 21.3984375,24.75 C22.5442745,25.6093805 23.3463505,26.4544225 23.8046875,27.285159 C24.2630245,28.11589 24.4921875,29.190095 24.4921875,30.5078125 C24.4921875,32.16928 23.7187555,33.630201 22.171875,34.890625 C20.6249945,36.151049 18.533867,36.78125 15.8984375,36.78125 Z M38.5,19.3359375 L33,19.3359375 L33,24.75 L30.25,24.75 L30.25,19.3359375 L24.75,19.3359375 L24.75,16.5 L30.25,16.5 L30.25,11 L33,11 L33,16.5 L38.5,16.5 L38.5,19.3359375 Z M18.6484375,26.46875 C17.903644,26.2395815 17.158856,26.125 16.4140625,26.125 C14.752595,26.125 13.277352,26.5833315 11.988284,27.5 C10.6992105,28.416674 10.0546875,29.476557 10.0546875,30.6796875 C10.0546875,31.997405 10.598951,33.1145815 11.6875,34.03125 C12.776049,34.9479185 14.1510325,35.40625 15.8125,35.40625 C20.109397,35.40625 22.2578125,33.8880355 22.2578125,30.8515625 C22.2578125,30.5651005 22.200519,30.25 22.0859375,29.90625 C22.0859375,29.734375 22.0429715,29.5625 21.957034,29.390625 C21.871091,29.21875 21.7421875,29.032553 21.5703125,28.832034 C21.3984375,28.6315095 21.2552065,28.4739565 21.140625,28.359375 C21.0260435,28.2447935 20.8541685,28.1015625 20.625,27.9296875 C20.3958315,27.7578125 20.2096345,27.6145815 20.066409,27.5 C19.923178,27.3854185 19.6796875,27.2135435 19.3359375,26.984375 C18.9921875,26.7552065 18.763019,26.5833315 18.6484375,26.46875 Z M20.109375,15.125 C19.9375,13.6354075 19.378909,12.3750055 18.433591,11.34375 C17.4882785,10.3124945 16.442712,9.782553 15.296875,9.753909 C14.151038,9.7252595 13.2487025,10.212235 12.589841,11.214841 C11.930985,12.2174525 11.701822,13.4492105 11.902341,14.910159 C12.1028655,16.371102 12.6757785,17.645826 13.621091,18.734375 C14.566409,19.822924 15.597648,20.3815095 16.714841,20.410159 C17.8320395,20.438803 18.7200475,19.9375055 19.378909,18.90625 C20.037765,17.8749945 20.28125,16.6145925 20.109375,15.125 Z" id="Page-1"></path>
        </g>
    </g>
</svg>