<?xml version="1.0" encoding="UTF-8"?>
<svg width="45px" height="46px" viewBox="0 0 45 46" version="1.1" xmlns="http://www.w3.org/2000/svg" xmlns:xlink="http://www.w3.org/1999/xlink">
    <!-- Generator: Sketch 41.2 (35397) - http://www.bohemiancoding.com/sketch -->
    <title>Page 1</title>
    <desc>Created with Sketch.</desc>
    <defs></defs>
    <g id="Symbols" stroke="none" stroke-width="1" fill="none" fill-rule="evenodd">
        <g id="linkedin" fill="#CECECE">
            <path d="M22.5,0 C16.2890325,0 10.9863506,2.21354971 6.59179688,6.64071714 C2.19724369,11.0678846 0,16.4099197 0,22.6669812 C0,28.9240427 2.19724369,34.2660778 6.59179688,38.6932452 C10.9863506,43.1204121 16.2890325,45.3339623 22.5,45.3339623 C28.7109675,45.3339623 34.0136494,43.1204121 38.4082031,38.6932452 C42.8027569,34.2660778 45,28.9240427 45,22.6669812 C45,16.4099197 42.8027569,11.0678846 38.4082031,6.64071714 C34.0136494,2.21354971 28.7109675,0 22.5,0 Z M16.875,33.6463002 L11.25,33.6463002 L11.25,13.8126916 L16.875,13.8126916 L16.875,33.6463002 Z M14.2382812,12.5730911 C13.5351506,12.5730911 12.9199219,12.3222243 12.3925781,11.8204793 C11.8652344,11.3187287 11.6015625,10.6989341 11.6015625,9.96107288 C11.6015625,9.2232173 11.8652344,8.58866083 12.3925781,8.05740346 C12.9199219,7.52614609 13.5351506,7.26051741 14.2382812,7.26051741 C14.9414119,7.26051741 15.5566406,7.52614609 16.0839844,8.05740346 C16.6113281,8.58866083 16.875,9.2232173 16.875,9.96107288 C16.875,10.6989341 16.6113281,11.3187287 16.0839844,11.8204793 C15.5566406,12.3222243 14.9414119,12.5730911 14.2382812,12.5730911 Z M36.5625,33.6463002 L30.9375,33.6463002 L30.9375,21.4273806 C30.9375,19.7745724 30.2050856,18.9481796 28.7402344,18.9481796 C27.9199181,18.9481796 27.2167988,19.1547778 26.6308594,19.5679798 C26.04492,19.9811819 25.6933575,20.3943783 25.5761719,20.8075804 L25.3125,21.4273806 L25.3125,33.6463002 L19.6875,33.6463002 L19.6875,13.8126916 L25.3125,13.8126916 L25.3125,15.6720924 C26.9531325,14.4324862 28.8281137,13.8126916 30.9375,13.8126916 C32.2851656,13.8126916 33.5595656,14.3734558 34.760745,15.4950067 C35.9619188,16.6165576 36.5625,18.6235091 36.5625,21.5159235 L36.5625,33.6463002 Z" id="Page-1"></path>
        </g>
    </g>
</svg>