<?xml version="1.0" encoding="UTF-8"?>
<svg width="45px" height="46px" viewBox="0 0 45 46" version="1.1" xmlns="http://www.w3.org/2000/svg" xmlns:xlink="http://www.w3.org/1999/xlink">
    <!-- Generator: Sketch 41.2 (35397) - http://www.bohemiancoding.com/sketch -->
    <title>Page 1</title>
    <desc>Created with Sketch.</desc>
    <defs></defs>
    <g id="Symbols" stroke="none" stroke-width="1" fill="none" fill-rule="evenodd">
        <g id="twitter" fill="#CECECE">
            <path d="M22.5,0 C16.2890325,0 10.9863506,2.21354971 6.59179688,6.64071714 C2.19724369,11.0678846 0,16.4099197 0,22.6669812 C0,28.9240427 2.19724369,34.2660778 6.59179688,38.6932452 C10.9863506,43.1204121 16.2890325,45.3339623 22.5,45.3339623 C28.7109675,45.3339623 34.0136494,43.1204121 38.4082031,38.6932452 C42.8027569,34.2660778 45,28.9240427 45,22.6669812 C45,16.4099197 42.8027569,11.0678846 38.4082031,6.64071714 C34.0136494,2.21354971 28.7109675,0 22.5,0 Z M33.6621094,17.6200361 C33.720705,17.8561524 33.75,18.092263 33.75,18.3283793 C33.75,22.3423447 32.3144663,25.9873256 29.4433594,29.263424 C26.5722525,32.5395281 22.7343994,34.1775575 17.9296875,34.1775575 C14.8827994,34.1775575 12.0703275,33.3511647 9.4921875,31.6983565 C9.90234563,31.757387 10.3417931,31.7868994 10.8105469,31.7868994 C13.3300913,31.7868994 15.615225,30.990019 17.6660156,29.3962412 C16.4355412,29.3372107 15.35157,28.9535324 14.4140625,28.2451836 C13.4765606,27.5368347 12.8320312,26.6219047 12.4804688,25.5003538 C12.8320312,25.5593843 13.1835938,25.5888967 13.5351562,25.5888967 C14.00391,25.5888967 14.5019531,25.5298662 15.0292969,25.4118109 C13.7402269,25.1166642 12.6709031,24.4673571 11.8212862,23.4638672 C10.971675,22.4603773 10.546875,21.2798186 10.546875,19.9221514 L10.546875,19.8336085 C11.3085956,20.3058411 12.1582012,20.5419517 13.0957031,20.5419517 C11.396475,19.4204008 10.546875,17.8856762 10.546875,15.9377211 C10.546875,14.9342312 10.8105469,13.9897831 11.3378906,13.1043485 C14.2675931,16.7641423 18.0761456,18.7120633 22.7636719,18.9481796 C22.6464863,18.5349775 22.5878906,18.0922687 22.5878906,17.6200361 C22.5878906,16.0852832 23.1298763,14.771913 24.21387,13.6798745 C25.2978581,12.5878417 26.6015531,12.0418337 28.125,12.0418337 C29.7656325,12.0418337 31.1132756,12.6321159 32.1679688,13.8126916 C33.4570388,13.5765754 34.6289006,13.1338666 35.6835938,12.4845482 C35.2734356,13.8422154 34.4824256,14.8752007 33.3105469,15.5835496 C34.36524,15.4654942 35.4199162,15.1703532 36.4746094,14.6981206 C35.7128888,15.8196715 34.7753981,16.793632 33.6621094,17.6200361 Z" id="Page-1"></path>
        </g>
    </g>
</svg>